# xmcd
#
# Track frame offsets:
#	150
#	13423
#	23338
#	32934
#	44405
#	54404
#	64801
#	77043
#	89828
#	98332
#	109068
#	124596
#	136323
#
# Disc length: 2144 seconds
#
# Revision: 1
# Processed by: cddbd v1.5.2PL0 Copyright (c) Steve Scherf et al.
# Submitted via: EasyCDDAExtractor 12.0.1.1
#
DISCID=a6085e0d
DTITLE=Waylon Jennings - Waylon Sings Hank Williams
DYEAR=2006
DGENRE=General Country
TTITLE0=Jambalaya (On The Bayou)
TTITLE1=Hey Good Lookin'
TTITLE2=Honky Tonkin'
TTITLE3=I'm So Lonesome I Could Cry
TTITLE4=Half As Much
TTITLE5=Blues Come Around
TTITLE6=Why Should We Try Anymore
TTITLE7=Be Careful Of Stones That You Throw
TTITLE8=I Won't Be Home No More
TTITLE9=Mansion On The Hill
TTITLE10=Cold Cold Heart
TTITLE11=They'll Never Take Her Love From Me
TTITLE12=Bonus Material: Waylon Speaks
EXTD=
EXTT0=
EXTT1=
EXTT2=
EXTT3=
EXTT4=
EXTT5=
EXTT6=
EXTT7=
EXTT8=
EXTT9=
EXTT10=
EXTT11=
EXTT12=
PLAYORDER=
